<svg width="22" height="23" viewBox="0 0 22 23" fill="none" xmlns="http://www.w3.org/2000/svg">
<path d="M16.4281 2.25451L12.9205 5.76211L4.04971 3.34248C3.93154 3.31034 3.80697 3.30998 3.68862 3.34146C3.57027 3.37293 3.46234 3.43511 3.37575 3.52172L1.36552 5.53194C1.03929 5.85818 1.11601 6.40569 1.51928 6.62973L8.29081 10.3918L5.134 13.5486L2.04041 13.1066C1.82404 13.0756 1.60552 13.1487 1.45115 13.3031L0.223842 14.5304C-0.0956451 14.8498 -0.0299676 15.3845 0.357652 15.6168L4.64295 17.968L6.99414 22.2533C7.22647 22.6409 7.7611 22.7066 8.08058 22.3871L9.30789 21.1598C9.46257 21.0051 9.53531 20.7869 9.50431 20.5705L9.06237 17.4769L12.2192 14.3201L15.9809 21.0914C16.2049 21.4946 16.7528 21.5717 17.079 21.2454L19.0892 19.2352C19.2654 19.059 19.3335 18.8019 19.2682 18.5615L16.8488 9.69049L20.3564 6.18288C21.4413 5.09797 22.4234 2.35732 21.3385 1.27242C20.2536 0.18751 17.513 1.1696 16.4281 2.25451Z" fill="#FDFCF7"/>
</svg>
